<svg xmlns="http://www.w3.org/2000/svg" viewBox="0 0 512 512" width="512" height="512">
  <rect width="512" height="512" rx="80" fill="#080A0F"/>
  <!-- outer ring -->
  <circle cx="256" cy="256" r="180" fill="none" stroke="#34D399" stroke-width="6" opacity="0.3"/>
  <!-- brain/circuit nodes -->
  <circle cx="256" cy="130" r="18" fill="#34D399" opacity="0.9"/>
  <circle cx="370" cy="196" r="14" fill="#A78BFA" opacity="0.8"/>
  <circle cx="370" cy="316" r="14" fill="#60A5FA" opacity="0.8"/>
  <circle cx="256" cy="382" r="18" fill="#34D399" opacity="0.9"/>
  <circle cx="142" cy="316" r="14" fill="#A78BFA" opacity="0.8"/>
  <circle cx="142" cy="196" r="14" fill="#60A5FA" opacity="0.8"/>
  <!-- inner connections -->
  <line x1="256" y1="130" x2="370" y2="196" stroke="#34D399" stroke-width="2.5" opacity="0.5"/>
  <line x1="370" y1="196" x2="370" y2="316" stroke="#A78BFA" stroke-width="2.5" opacity="0.5"/>
  <line x1="370" y1="316" x2="256" y2="382" stroke="#60A5FA" stroke-width="2.5" opacity="0.5"/>
  <line x1="256" y1="382" x2="142" y2="316" stroke="#34D399" stroke-width="2.5" opacity="0.5"/>
  <line x1="142" y1="316" x2="142" y2="196" stroke="#A78BFA" stroke-width="2.5" opacity="0.5"/>
  <line x1="142" y1="196" x2="256" y2="130" stroke="#60A5FA" stroke-width="2.5" opacity="0.5"/>
  <!-- center -->
  <circle cx="256" cy="256" r="40" fill="#34D399" opacity="0.15"/>
  <circle cx="256" cy="256" r="16" fill="#34D399" opacity="0.95"/>
  <!-- center spokes -->
  <line x1="256" y1="240" x2="256" y2="130" stroke="#34D399" stroke-width="1.5" opacity="0.3"/>
  <line x1="269" y1="248" x2="370" y2="196" stroke="#A78BFA" stroke-width="1.5" opacity="0.3"/>
  <line x1="269" y1="264" x2="370" y2="316" stroke="#60A5FA" stroke-width="1.5" opacity="0.3"/>
  <line x1="256" y1="272" x2="256" y2="382" stroke="#34D399" stroke-width="1.5" opacity="0.3"/>
  <line x1="243" y1="264" x2="142" y2="316" stroke="#A78BFA" stroke-width="1.5" opacity="0.3"/>
  <line x1="243" y1="248" x2="142" y2="196" stroke="#60A5FA" stroke-width="1.5" opacity="0.3"/>
</svg>
